<?xml version="1.0" encoding="utf-8"?>
<!-- Generator: Adobe Illustrator 18.1.1, SVG Export Plug-In . SVG Version: 6.00 Build 0)  -->
<svg version="1.0" id="Layer_1" xmlns="http://www.w3.org/2000/svg" xmlns:xlink="http://www.w3.org/1999/xlink" x="0px" y="0px"
	 viewBox="0 0 175.1 167.8" enable-background="new 0 0 175.1 167.8" xml:space="preserve">
<g>
	<path d="M38.9,167.8c-3.3,0-6.7,0-10,0c-2.1-0.9-4.4-1.6-6.4-2.8c-5-2.9-7.7-7.2-8.1-13c-0.4-5.9,2-10.8,4.9-15.5
		c4.8-7.7,10.1-15,14.8-22.7c8.1-13.3,13-27.8,15.7-43.1c1-6,1.8-12,2.6-18c0.7-5,1.2-10.1,1.7-15.1c0.4-3.7,0.8-7.4,1.1-10.8
		c-6.5,0-13.1-0.3-19.5,0.1c-6.5,0.4-12.2,3.3-16.9,7.9c-4.5,4.4-8,9.5-11.3,14.8c-0.3,0.4-0.7,1.1-1.1,1.1
		c-2.1,0.1-4.3,0.1-6.5,0.1C2.9,39.2,8.2,26,16,15.6c6.5-8.7,14.5-14,25.4-14.7c1.9-0.1,3.9-0.6,5.8-0.8C89.6,0,132,0,174.3,0
		c0,8.6,0,17.1,0,25.8c-13.8,0-27.4,0-41,0c-0.5,6.2-1,12.3-1.4,18.4c-0.4,5.7-0.6,11.4-0.9,17.1c-0.1,2.4-0.3,4.9-0.4,7.3
		c-0.6,7.3-1.3,14.6-1.7,21.9c-0.3,6.1-0.2,12.3,0,18.4c0.2,5.2,0.6,10.3,1.3,15.4c0.5,3.4,1.4,6.8,3.8,9.3
		c5.1,5.3,11.5,6.6,18.4,5.3c8.2-1.5,12.3-7.4,14.3-14.9c1.7-6.2,1.5-6.2,7.9-5.7c0.1,0,0.1,0.1,0.3,0.1c-0.5,3.3-1,6.6-1.7,9.9
		c-1.9,9.4-4.8,18.5-10.5,26.3c-3.5,4.7-7.8,8.4-13.3,10.4c-2.6,1-5.3,1.7-8,2.5c-4.2,0-8.4,0-12.7,0c-0.4-0.1-0.7-0.4-1.1-0.4
		c-6-0.8-11.2-3.2-15.8-7.1c-8.3-7.1-11.1-16.7-11.4-27.1c-0.2-7.1,0.4-14.3,0.8-21.4c0.2-4.7,0.5-9.4,0.9-14
		c0.6-7.4,1.5-14.7,2.1-22.1c0.5-5.4,0.9-10.9,1.3-16.3c0.5-6.1,1.1-12.3,1.7-18.4c0.2-2.1,0.6-4.2,0.8-6.4c0.3-2.8,0.4-5.7,0.6-8.6
		c-12.6,0-24.8,0-37.2,0c0,1.8,0.1,3.5,0,5.1c-0.5,8-1.2,16.1-1.7,24.1c-0.3,4.4-0.5,8.8-0.9,13.1c-0.5,5.6-1.2,11.3-1.7,16.9
		c-0.5,4.7-0.7,9.5-1.4,14.1c-1,7.7-2,15.4-3.5,23.1c-1.7,8.8-3.8,17.5-6.2,26.1c-1.5,5.4-3.7,10.8-8.5,14.4
		C45.1,164.9,41.9,166.2,38.9,167.8z"/>
</g>
</svg>
